<svg viewBox="-4.8 -4.8 57.60 57.60" data-name="Layer 1" xmlns="http://www.w3.org/2000/svg" fill="#305af3" stroke="#305af3"><g id="SVGRepo_bgCarrier" stroke-width="0"><path transform="translate(-4.8, -4.8), scale(1.7999999999999998)" d="M16,29.194934457540512C18.10757812576434,29.11636463168771,20.762397252768864,30.46630537047753,22.243573639812798,28.964914254146294C23.957690407797894,27.227403644121352,22.48679789454549,24.116337413169,23.285506283016005,21.80999738524082C23.7747260712516,20.397332642576803,25.833181875451576,19.76100606746178,25.947195865342128,18.270382544745022C26.06477375105092,16.73316450372146,24.07087800772192,15.732553622675097,23.867242599597127,14.204353215197756C23.634201909185016,12.455478197212956,25.601836238279795,10.574570316758376,24.718223608964898,9.047448673524183C23.891197127728976,7.618123200887566,21.42559391723428,8.506219629611794,20.045522203455107,7.59938658421701C18.383938662918048,6.507574581116879,17.98802664715354,3.344536062483106,16,3.3187802378088236C14.025727430223641,3.293202603706578,13.826968999583267,7.047398472477208,11.903680629093294,7.493905179118487C9.16638496931269,8.12939015833704,5.379456507271888,3.937312237131815,3.6837280034394837,6.1781008325054305C1.9610515048441985,8.454499349630304,6.8962635023026255,11.097776520854811,7.018050983900192,13.949928749770189C7.09732308743201,15.806409430815854,4.535852808093086,16.858398203864503,4.217953431255731,18.689175244276733C3.869786016238577,20.69426539567769,4.259842179860831,22.819065023756412,5.161169171420312,24.643679152390515C6.130821498422305,26.606608646657207,7.509521869466639,28.59131488914086,9.528147006639557,29.43894121618367C11.543876061125927,30.28535147002636,13.815293926037914,29.276379588172862,16,29.194934457540512" fill="#041459305af3" strokewidth="0"></path></g><g id="SVGRepo_tracerCarrier" stroke-linecap="round" stroke-linejoin="round"></g><g id="SVGRepo_iconCarrier"> <title>aquarius</title> <g fill="#041459" class="nc-icon-wrapper"> <path d="M26.423 22.839c2.489 6.038-1.309 9.469-5.532 12C16.237 37.635 9.515 41 9.515 41l-3.758-3.757L2 33.485s3.365-6.722 6.158-11.376c2.534-4.223 5.965-8.021 12-5.532l1.878-5.636 10.02 10.02z" opacity=".3"> </path> <path fill="none" stroke="#041459" stroke-miterlimit="10" stroke-width="2" d="M26.423 22.839l-2.505-2.504"> </path> <path d="M26.423 22.839c2.489 6.038-1.309 9.469-5.532 12C16.237 37.635 9.515 41 9.515 41l-3.758-3.757L2 33.485s3.365-6.722 6.158-11.376c2.534-4.223 5.965-8.021 12-5.532l1.878-5.636 10.02 10.02z" fill="none" stroke="#041459" stroke-miterlimit="10" stroke-width="2"> </path> <path d="M27 12a5 5 0 0 1 10 0v25a5 5 0 1 0 5-5" fill="none" stroke="#041459" stroke-miterlimit="10" stroke-width="2"> </path> <path d="M36 5a5 5 0 0 1 5 5v18" fill="none" stroke="#041459" stroke-miterlimit="10" stroke-width="2"> </path> <path d="M30 36a3 3 0 1 0 3 3V27" fill="none" stroke="#041459" stroke-miterlimit="10" stroke-width="2"> </path> <circle cx="7" cy="12" r="1"> </circle> <path d="M13.719 5.328A9.51 9.51 0 0 1 12 3a9.51 9.51 0 0 1-1.719 2.328A9.509 9.509 0 0 1 8 7a9.5 9.5 0 0 1 4 4 9.5 9.5 0 0 1 4-4 9.509 9.509 0 0 1-2.281-1.672z"> </path> </g> </g></svg>