<svg viewBox="-4.8 -4.8 57.60 57.60" data-name="Layer 1" xmlns="http://www.w3.org/2000/svg" fill="#305af3" stroke="#305af3"><g id="SVGRepo_bgCarrier" stroke-width="0"><path transform="translate(-4.8, -4.8), scale(1.7999999999999998)" d="M16,28.797064534255437C18.04041198557516,28.57384444700226,19.978420547172888,27.99458297013834,21.826693027935672,27.101836021060898C23.718490097854623,26.188065957381337,25.85421073404376,25.34668648755107,26.907204616110405,23.528699752901698C27.951912808694864,21.725018204467148,26.92305174688605,19.406739883425853,27.451598174417917,17.390475761402243C28.085200631789455,14.973450811692963,30.676486054123238,13.046271643653096,30.30272505682223,10.575691873963205C29.939953776461373,8.177754708887008,27.395110975747894,6.794523610539223,25.6016184925572,5.162013162717585C23.788601432585757,3.511730643988147,22.06748161474852,1.619141451174992,19.712854494217318,0.9363571699921156C17.328539641928458,0.24496417263020742,14.640568377947368,0.29443565007804473,12.383977634345548,1.3292205589054404C10.214740616326527,2.3239484404587394,8.91914531384853,4.521700290704952,7.582663906459928,6.49879165085707C6.463960539930505,8.153718347413276,6.2311831168220975,10.187264745010575,5.228281545617252,11.914826041096347C3.99589957468417,14.03768181887739,1.2594219941435205,15.378105129593889,1.010315279655341,17.820077246620652C0.7656182313458048,20.2188217779287,2.4636925533533685,22.420285679911473,3.9640680895128124,24.307803950664347C5.413714599181379,26.131503555988875,7.280665659503615,27.640219633341257,9.463442557584766,28.454369660460536C11.537855830263418,29.22810133395066,13.799118731162249,29.0378398837128,16,28.797064534255437" fill="#305af3" strokewidth="0"></path></g><g id="SVGRepo_tracerCarrier" stroke-linecap="round" stroke-linejoin="round"></g><g id="SVGRepo_iconCarrier"> <title>aries</title> <g fill="#041459" class="nc-icon-wrapper"> <path d="M2.444 17.9A40.055 40.055 0 0 0 2.25 22c0 11.984 3.34 17.148 5.626 17.813 1.791.52 3.748-.521 5.457-2.73-4.333.25-6.5-3.333-6.818-8.57A49.9 49.9 0 0 1 6.75 20a6.214 6.214 0 0 1-4.306-2.1z" opacity=".3"> </path> <path d="M15 14c-3.208-4.375-8.5-4.25-12 0z" opacity=".3"> </path> <path d="M45.556 17.9a40.055 40.055 0 0 1 .194 4.1c0 11.984-3.34 17.148-5.626 17.813-1.791.52-3.748-.521-5.457-2.73 4.333.25 6.5-3.333 6.818-8.57A49.9 49.9 0 0 0 41.25 20a6.214 6.214 0 0 0 4.306-2.1z" opacity=".3"> </path> <path d="M33 14c3.208-4.375 8.5-4.25 12 0z" opacity=".3"> </path> <circle cx="18" cy="28" r="2"> </circle> <circle cx="30" cy="28" r="2"> </circle> <path d="M11 20H7a6 6 0 0 1-6-6h14" fill="none" stroke="#041459" stroke-miterlimit="10" stroke-width="2"> </path> <path d="M37 20h4a6 6 0 0 0 6-6H33" fill="none" stroke="#041459" stroke-miterlimit="10" stroke-width="2"> </path> <path d="M15 14l-2.6 12.145a4 4 0 0 0 .787 3.337L16 33l2.824 9.177a5.415 5.415 0 0 0 10.352 0L32 33l2.815-3.518a4 4 0 0 0 .787-3.337L33 14a41 41 0 0 0-18 0z" fill="none" stroke="#041459" stroke-miterlimit="10" stroke-width="2"> </path> <path d="M27 38.677a3.1 3.1 0 0 1-6 0" fill="none" stroke="#041459" stroke-miterlimit="10" stroke-width="2"> </path> <path fill="none" stroke="#041459" stroke-miterlimit="10" stroke-width="2" d="M24 41v5"> </path> <path d="M2.444 17.9A40.055 40.055 0 0 0 2.25 22c0 11.984 3.34 17.148 5.626 17.813 1.791.52 3.748-.521 5.457-2.73-4.333.25-6.5-3.333-6.818-8.57a46.2 46.2 0 0 1 .018-6.261" fill="none" stroke="#041459" stroke-miterlimit="10" stroke-width="2"> </path> <path d="M24 13C22.4 7.054 18.863 2 12 2 8.214 2 4.588 6.629 3.036 14" fill="none" stroke="#041459" stroke-miterlimit="10" stroke-width="2"> </path> <path d="M15 14c-3.208-4.375-8.5-4.25-12 0" fill="none" stroke="#041459" stroke-miterlimit="10" stroke-width="2"> </path> <path d="M45.556 17.9a40.055 40.055 0 0 1 .194 4.1c0 11.984-3.34 17.148-5.626 17.813-1.791.52-3.748-.521-5.457-2.73 4.333.25 6.5-3.333 6.818-8.57a46.2 46.2 0 0 0-.018-6.261" fill="none" stroke="#041459" stroke-miterlimit="10" stroke-width="2"> </path> <path d="M24 13c1.605-5.946 5.137-11 12-11 3.786 0 7.412 4.629 8.964 12" fill="none" stroke="#041459" stroke-miterlimit="10" stroke-width="2"> </path> <path d="M33 14c3.208-4.375 8.5-4.25 12 0" fill="none" stroke="#041459" stroke-miterlimit="10" stroke-width="2"> </path> </g> </g></svg>