<svg viewBox="-4.8 -4.8 57.60 57.60" data-name="Layer 1" xmlns="http://www.w3.org/2000/svg" fill="#305af3" stroke="#305af3"><g id="SVGRepo_bgCarrier" stroke-width="0"><path transform="translate(-4.8, -4.8), scale(1.7999999999999998)" d="M16,31.833203620380825C19.516053945492065,31.555270814710305,20.904333904138582,27.156331483650877,22.95097897401091,24.283854164324318C24.38775602322103,22.26732987902532,25.175834046749532,20.094085456911586,26.022078446576923,17.767162832908294C27.12765271960459,14.727159508869999,29.892007085920696,11.68928222261038,28.61165789418795,8.71865591986312C27.32711812199422,5.7383067628964355,23.279137930583794,5.489204097948978,20.239789087056824,4.351275220061257C17.160788639509594,3.19850082506045,14.159012668148389,1.4251415706305726,10.941956236682975,2.1031389736731896C7.414981706453937,2.846451881928106,4.076438934849222,4.955176064805475,2.3530386878899883,8.120923212832867C0.652838452594696,11.244053812041196,0.9243334808445229,15.08457475406706,2.036260009893443,18.462184111853535C3.0287626651583777,21.477029219396865,5.768931738075267,23.265642613240896,8.061424593826736,25.46082576038702C10.588476598519076,27.880611697230893,12.512114976449931,32.10890976297125,16,31.833203620380825" fill="#041459305af3" strokewidth="0"></path></g><g id="SVGRepo_tracerCarrier" stroke-linecap="round" stroke-linejoin="round"></g><g id="SVGRepo_iconCarrier"> <title>cancer</title> <g fill="#041459" class="nc-icon-wrapper"> <path d="M9.331 12C8.25 8 9 5.312 12.071 2.613A8.02 8.02 0 1 0 16.6 7.5 12.219 12.219 0 0 1 9.331 12z" opacity=".3"> </path> <path d="M38.669 12c1.081-4 .331-6.687-2.74-9.387A8.02 8.02 0 1 1 31.4 7.5a12.219 12.219 0 0 0 7.269 4.5z" opacity=".3"> </path> <circle cx="17" cy="22" r="2"> </circle> <circle cx="31" cy="22" r="2"> </circle> <path d="M9.331 12C8.25 8 9 5.312 12.071 2.613A8.02 8.02 0 1 0 16.6 7.5 12.219 12.219 0 0 1 9.331 12z" fill="none" stroke="#041459" stroke-linecap="square" stroke-miterlimit="10" stroke-width="2"> </path> <path d="M24 26c-7.236 0-13.414 3.192-15.867 7.69a1.982 1.982 0 0 0 .979 2.732l14.08 6.221a2 2 0 0 0 1.616 0l14.08-6.221a1.982 1.982 0 0 0 .979-2.732C37.414 29.192 31.236 26 24 26z" fill="none" stroke="#041459" stroke-linecap="square" stroke-miterlimit="10" stroke-width="2"> </path> <path d="M16 46a7.97 7.97 0 0 1 2.236-5.547" fill="none" stroke="#041459" stroke-miterlimit="10" stroke-width="2"> </path> <path d="M10 46a13.937 13.937 0 0 1 2.548-8.055" fill="none" stroke="#041459" stroke-miterlimit="10" stroke-width="2"> </path> <path d="M32 46a7.97 7.97 0 0 0-2.236-5.547" fill="none" stroke="#041459" stroke-miterlimit="10" stroke-width="2"> </path> <path d="M38 46a13.937 13.937 0 0 0-2.548-8.055" fill="none" stroke="#041459" stroke-miterlimit="10" stroke-width="2"> </path> <path d="M5 17s-2 8 5 10" fill="none" stroke="#041459" stroke-miterlimit="10" stroke-width="2"> </path> <path d="M38.669 12c1.081-4 .331-6.687-2.74-9.387A8.02 8.02 0 1 1 31.4 7.5a12.219 12.219 0 0 0 7.269 4.5z" fill="none" stroke="#041459" stroke-linecap="square" stroke-miterlimit="10" stroke-width="2"> </path> <path d="M43 17s2 8-5 10" fill="none" stroke="#041459" stroke-miterlimit="10" stroke-width="2"> </path> </g> </g></svg>