<svg viewBox="-4.8 -4.8 57.60 57.60" data-name="Layer 1" xmlns="http://www.w3.org/2000/svg" fill="#305af3" stroke="#305af3"><g id="SVGRepo_bgCarrier" stroke-width="0"><path transform="translate(-4.8, -4.8), scale(1.7999999999999998)" d="M16,27.595235934481025C18.25911603669097,27.930863262589302,21.111973604339617,29.271975034355776,22.73464174568653,27.66474167430343C24.523390283177815,25.893007670938776,21.832322134421318,22.243364800323878,23.395683591127078,20.269899912178516C25.413698845807943,17.722515728071727,30.992722255895682,19.097741142771113,31.97534708864987,16C32.80803062204031,13.37495129950895,28.19304956395226,12.137213228032046,26.711896438094726,9.815483707934622C25.3205034287739,7.634454503457843,25.77193092835125,4.243816153251698,23.589360659942038,2.8548417400159405C21.41772550345318,1.4728263653426876,18.527937378072288,2.513216383630949,16,2.9984981175512075C13.814850794742988,3.4179756743925203,11.501658487702773,3.907825502164364,9.925084766931835,5.477938164651803C8.446555405921178,6.9504082692829465,8.434708895152,9.262536180776829,7.735906888159214,11.228723617270585C7.166170643311223,12.831764586709037,6.32099893714202,14.304133215343185,6.185442354530096,15.999999999999998C6.042598983584381,17.78702740602979,6.239338803505775,19.58123910479272,6.936232482156148,21.232968616299324C7.688559284064477,23.016081907577714,8.745378256465553,24.709845092544644,10.329410638660187,25.821748882700092C11.978499078326381,26.979318454495044,14.007063633108663,27.29915379569487,16,27.595235934481025" fill="#041459305af3" strokewidth="0"></path></g><g id="SVGRepo_tracerCarrier" stroke-linecap="round" stroke-linejoin="round"></g><g id="SVGRepo_iconCarrier"> <title>capricorn</title> <g fill="#041459" class="nc-icon-wrapper"> <path d="M23 17C22 11 19 1 9 1 4 1 3 3 3 3c12 1 11 15 11 15" opacity=".3"> </path> <path d="M25 17c1-6 4-16 14-16 5 0 6 2 6 2-12 1-11 15-11 15" opacity=".3"> </path> <circle cx="18" cy="29" r="2"> </circle> <circle cx="30" cy="29" r="2"> </circle> <path d="M13 19v10.343a4 4 0 0 0 1.172 2.829L17 35l2.03 8.119A5.123 5.123 0 0 0 24 47a5.123 5.123 0 0 0 4.97-3.881L31 35l2.828-2.828A4 4 0 0 0 35 29.343V19a31.25 31.25 0 0 0-22 0z" fill="none" stroke="#041459" stroke-miterlimit="10" stroke-width="2"> </path> <path d="M27 39.677a3.1 3.1 0 0 1-6 0" fill="none" stroke="#041459" stroke-miterlimit="10" stroke-width="2"> </path> <path fill="none" stroke="#041459" stroke-miterlimit="10" stroke-width="2" d="M24 42v5"> </path> <path d="M10 21.8A10 10 0 0 1 2 12h6a5 5 0 0 1 5 5v5" fill="none" stroke="#041459" stroke-miterlimit="10" stroke-width="2"> </path> <path d="M38 21.8a10 10 0 0 0 8-9.8h-6a5 5 0 0 0-5 5v5" fill="none" stroke="#041459" stroke-miterlimit="10" stroke-width="2"> </path> <path d="M23 17C22 11 19 1 9 1 4 1 3 3 3 3c12 1 11 15 11 15" fill="none" stroke="#041459" stroke-miterlimit="10" stroke-width="2"> </path> <path d="M25 17c1-6 4-16 14-16 5 0 6 2 6 2-12 1-11 15-11 15" fill="none" stroke="#041459" stroke-miterlimit="10" stroke-width="2"> </path> </g> </g></svg>