<svg viewBox="-4.8 -4.8 57.60 57.60" data-name="Layer 1" xmlns="http://www.w3.org/2000/svg" fill="#305af3" stroke="#305af3"><g id="SVGRepo_bgCarrier" stroke-width="0"><path transform="translate(-4.8, -4.8), scale(1.7999999999999998)" d="M16,31.73983700821797C18.8952425912032,31.716525638553613,21.300128559192398,29.39373657007609,23.208039344137156,27.215928149079396C24.826386604451113,25.36864560346985,24.89138847862732,22.75940284812254,25.8488036815532,20.497797934021545C26.771094706560664,18.319163306104937,28.66322960372091,16.53439728494338,28.731017725399163,14.169555990622344C28.80380219129251,11.630413346330618,27.556258612392522,9.301643761443305,26.23187580867104,7.134029142618504C24.701538431434994,4.629329095691233,23.389396266770007,1.1800860472655486,20.495347690894953,0.6902517347487986C17.53921386219637,0.18990913726829273,15.582571488651903,3.9391084046808174,12.725475426999658,4.847993448303454C9.969316527721086,5.724768868991646,6.335566464009425,3.809430023548784,4.283405714662701,5.847513259149363C2.2592047227491894,7.857828537042812,3.4917372342316915,11.330119428172441,3.330605420267961,14.178416061376964C3.1848754450882186,16.754457300227987,2.405377616868474,19.374208586474662,3.383105930255317,21.7619424567225C4.377437073320844,24.19022249733584,6.658829898318332,25.70494742882987,8.716977281765892,27.332604556642437C10.988669598139857,29.129140713712715,13.103867339052872,31.76315554437846,16,31.73983700821797" fill="#305af3" strokewidth="0"></path></g><g id="SVGRepo_tracerCarrier" stroke-linecap="round" stroke-linejoin="round"></g><g id="SVGRepo_iconCarrier"> <title>gemini</title> <g fill="#041459" class="nc-icon-wrapper"> <path d="M10.562 18.787l3.741 1.87a4.05 4.05 0 0 0 0-3.74z" opacity=".3"> </path> <path d="M33.7 16.917a4.05 4.05 0 0 0 0 3.74l3.741-1.87z" opacity=".3"> </path> <path d="M8.519 44A17.007 17.007 0 0 1 7 37h5.4a3 3 0 0 0 2.97-2.576L16 30l3.991-1.6a1 1 0 0 0 .523-1.376L17 20C17 10 14.339 5 4 5" fill="none" stroke="#041459" stroke-linecap="square" stroke-miterlimit="10" stroke-width="2"> </path> <path d="M13 7.367C4.76 10.75 9.5 18.361 1 28.962" fill="none" stroke="#041459" stroke-miterlimit="10" stroke-width="2"> </path> <path d="M39.481 44A17.007 17.007 0 0 0 41 37h-5.4a3 3 0 0 1-2.97-2.576L32 30l-3.991-1.6a1 1 0 0 1-.523-1.376L31 20c0-10 2.661-15 13-15" fill="none" stroke="#041459" stroke-linecap="square" stroke-miterlimit="10" stroke-width="2"> </path> <path d="M35 7.367c8.237 3.383 3.5 10.994 12 21.6" fill="none" stroke="#041459" stroke-miterlimit="10" stroke-width="2"> </path> <path d="M25.719 5.328A9.51 9.51 0 0 1 24 3a9.51 9.51 0 0 1-1.719 2.328A9.509 9.509 0 0 1 20 7a9.5 9.5 0 0 1 4 4 9.5 9.5 0 0 1 4-4 9.509 9.509 0 0 1-2.281-1.672z"> </path> </g> </g></svg>