<svg viewBox="-4.8 -4.8 57.60 57.60" data-name="Layer 1" xmlns="http://www.w3.org/2000/svg" fill="#305af3" stroke="#305af3"><g id="SVGRepo_bgCarrier" stroke-width="0"><path transform="translate(-4.8, -4.8), scale(1.7999999999999998)" d="M16,30.757961760740727C18.16724344116072,30.82415210519313,19.537367186107577,28.331528442809358,21.54948225335732,27.523618638994936C23.73336285580056,26.64674107975789,26.567199231544823,27.39874430057827,28.30859911059094,25.8157802451179C30.025332464405622,24.255238508209576,30.472569076750005,21.64319513397576,30.56850260961931,19.325165652281477C30.6590985505841,17.136107709796196,29.40959390287392,15.184785026400327,28.836083325423132,13.070247744243956C28.284744796679878,11.037458951927578,28.76611709890205,8.487061852996087,27.236308275289392,7.039343161177571C25.66646763518348,5.5537407755862125,23.005518712036558,6.417402261163634,20.987674373197255,5.642987444920388C19.16687555859217,4.94419539625354,17.900291512760997,3.165797034175168,16,2.727036487776786C13.946259789838876,2.2528459908348815,11.765730794653601,2.3903012158549934,9.764394160013829,3.0516310526772976C7.6551546901825915,3.7486167422705567,5.737151323583033,4.98152414010642,4.2323273512896815,6.615594213574203C2.6813939111120564,8.299733998158022,1.0700489585124633,10.286808305162378,0.9942413152148379,12.575033501924466C0.9180120869301658,14.875984082935094,3.142694505771586,16.580447751501353,3.82939815450675,18.77786045063455C4.453860442743653,20.776104328949447,3.530606124418818,23.26630317457174,4.844643000964513,24.89610035021387C6.159563940421743,26.52699402722672,8.756889021115299,26.215059608655153,10.611394004778916,27.189555646774544C12.542679131487946,28.204397731878494,13.819327838682607,30.69136128626055,16,30.757961760740727" fill="#041459305af3" strokewidth="0"></path></g><g id="SVGRepo_tracerCarrier" stroke-linecap="round" stroke-linejoin="round"></g><g id="SVGRepo_iconCarrier"> <title>leo</title> <g fill="#041459" class="nc-icon-wrapper"> <path d="M42.667 13.583a5.984 5.984 0 0 1 2.833 1.334c-.333-5.667-5.458-5-8.5-10 0 0 1.5.125 2-1.917-2.333.013-5-3-10-1a12.133 12.133 0 0 0-5-1 12.133 12.133 0 0 0-5 1c-5-2-7.667 1.013-10 1 .5 2.042 2 1.917 2 1.917-3.042 5-8.167 4.333-8.5 10a5.984 5.984 0 0 1 2.833-1.334C-3.417 32 8.581 42.167 8.581 42.167A18.447 18.447 0 0 1 9.333 38c2.834 8.5 11.084 5.5 14.667 8.833C27.583 43.5 35.833 46.5 38.667 38a18.447 18.447 0 0 1 .752 4.167S51.417 32 42.667 13.583zm-4.179 10.534l-3.94 5.571h-.013a4.989 4.989 0 0 1 .657 4.141l-.363 1.27A4 4 0 0 1 30.983 38H30v1a3 3 0 0 1-3 3h-6a3 3 0 0 1-3-3v-1h-.983a4 4 0 0 1-3.846-2.9l-.363-1.27a4.989 4.989 0 0 1 .657-4.141h-.012l-3.941-5.572a5 5 0 0 1-.646-4.57l2.744-7.776a6.339 6.339 0 0 1 8.812-3.56 8 8 0 0 0 7.156 0 6.339 6.339 0 0 1 8.812 3.56l2.744 7.776a5 5 0 0 1-.646 4.57z" opacity=".3"> </path> <path fill="none" stroke="#041459" stroke-miterlimit="10" stroke-width="2" d="M19 30l2-8"> </path> <path d="M21 23h-2.037a3.178 3.178 0 0 1-2.841-1.755L15 19h4.72A2.28 2.28 0 0 1 22 21.28V22a1 1 0 0 1-1 1z"> </path> <path fill="none" stroke="#041459" stroke-miterlimit="10" stroke-width="2" d="M29 30l-2-8"> </path> <path d="M27 23h2.037a3.178 3.178 0 0 0 2.841-1.755L33 19h-4.72A2.28 2.28 0 0 0 26 21.28V22a1 1 0 0 0 1 1z"> </path> <path d="M19.425 29h9.15a.5.5 0 0 1 .312.89l-3.613 2.891a1 1 0 0 1-.625.219h-1.3a1 1 0 0 1-.625-.219l-3.611-2.891a.5.5 0 0 1 .312-.89z" stroke="#041459" stroke-miterlimit="10" stroke-width="2"> </path> <path d="M30 38v1a3 3 0 0 1-3 3h-6a3 3 0 0 1-3-3v-1" fill="none" stroke="#041459" stroke-miterlimit="10" stroke-width="2"> </path> <path fill="none" stroke="#041459" stroke-miterlimit="10" stroke-width="2" d="M24 35v-2"> </path> <path d="M24 33v1a4 4 0 0 1-4 4h-2.983a4 4 0 0 1-3.846-2.9l-.363-1.27a5 5 0 0 1 1.272-4.91L16 27" fill="none" stroke="#041459" stroke-miterlimit="10" stroke-width="2"> </path> <path d="M24 33v1a4 4 0 0 0 4 4h2.983a4 4 0 0 0 3.846-2.9l.363-1.27a5 5 0 0 0-1.272-4.91L32 27" fill="none" stroke="#041459" stroke-miterlimit="10" stroke-width="2"> </path> <path d="M34.548 29.688l3.94-5.571a5 5 0 0 0 .646-4.57l-2.744-7.776a6.339 6.339 0 0 0-8.812-3.56 8 8 0 0 1-7.156 0 6.339 6.339 0 0 0-8.812 3.56l-2.744 7.776a5 5 0 0 0 .646 4.57l3.941 5.571" fill="none" stroke="#041459" stroke-miterlimit="10" stroke-width="2"> </path> <path d="M24 46.833C27.583 43.5 35.833 46.5 38.667 38a18.447 18.447 0 0 1 .752 4.167s12-10.167 3.248-28.584a5.984 5.984 0 0 1 2.833 1.334c-.333-5.667-5.458-5-8.5-10 0 0 1.5.125 2-1.917-2.333.013-5-3-10-1a12.133 12.133 0 0 0-5-1 12.133 12.133 0 0 0-5 1c-5-2-7.667 1.013-10 1 .5 2.042 2 1.917 2 1.917-3.042 5-8.167 4.333-8.5 10a5.984 5.984 0 0 1 2.833-1.334C-3.417 32 8.581 42.167 8.581 42.167A18.447 18.447 0 0 1 9.333 38c2.834 8.5 11.084 5.5 14.667 8.833z" fill="none" stroke="#041459" stroke-miterlimit="10" stroke-width="2"> </path> </g> </g></svg>