<svg viewBox="-4.8 -4.8 57.60 57.60" data-name="Layer 1" xmlns="http://www.w3.org/2000/svg" fill="#305af3" stroke="#305af3"><g id="SVGRepo_bgCarrier" stroke-width="0"><path transform="translate(-4.8, -4.8), scale(1.7999999999999998)" d="M16,30.743821611627936C18.61297666947066,30.69128148260776,18.217601573236934,25.824185224718384,20.40735988502768,24.39752265904324C22.28662322048152,23.17315253686968,25.07979143133605,24.762876528555363,26.988368974164867,23.584723464194916C29.01643000513504,22.33281398463241,31.61606833829885,20.142782071345223,31.050658118478502,17.827480757545878C30.380591430615873,15.083621116603291,25.970693429165912,15.150229297231805,24.361714026601256,12.82882016106053C23.283911328720514,11.273784076781098,24.55278136039724,8.97606705842844,23.733608182580767,7.2705609213195235C22.774119681829045,5.27292040911502,21.32230621832404,3.414240692658233,19.352281781372067,2.3992581721745C17.245008455276476,1.313563217457152,14.215520768881923,-0.09986952657365156,12.410477559867182,1.4367349831042429C10.186530321436841,3.3299458152831902,11.894353956869077,7.269135124720876,10.572362373204488,9.873463603834375C9.866796831410754,11.263430421384687,7.443350206895189,11.091777148295817,6.790846889865323,12.5074289094725C6.142664276571899,13.913706600519,7.6223045689274365,15.555981386315983,7.259335113266953,17.061308865228295C6.626324230167099,19.686567442556296,2.6150158264232424,21.971084748746843,3.9417950794050363,24.32317789949878C5.198327442560982,26.55073848158892,9.241183094875199,23.374631966780328,11.498624718540679,24.57665403075527C13.778196893968355,25.790459970435894,13.417931330120282,30.79574026158738,16,30.743821611627936" fill="#305af3" strokewidth="0"></path></g><g id="SVGRepo_tracerCarrier" stroke-linecap="round" stroke-linejoin="round"></g><g id="SVGRepo_iconCarrier"> <title>libra</title> <g fill="#041459" class="nc-icon-wrapper"> <path d="M9 32a8 8 0 0 0 8-8H1a8 8 0 0 0 8 8z" opacity=".3"> </path> <path d="M39 32a8 8 0 0 1-8-8h16a8 8 0 0 1-8 8z" opacity=".3"> </path> <path fill="none" stroke="#041459" stroke-linecap="square" stroke-miterlimit="10" stroke-width="2" d="M24 10v24"> </path> <circle cx="24" cy="7" r="3" fill="none" stroke="#041459" stroke-linecap="square" stroke-miterlimit="10" stroke-width="2"> </circle> <path d="M17 24a8 8 0 0 1-16 0l8-10z" fill="none" stroke="#041459" stroke-linecap="square" stroke-miterlimit="10" stroke-width="2"> </path> <path fill="none" stroke="#041459" stroke-miterlimit="10" stroke-width="2" d="M1 24h16"> </path> <path d="M24 38a6 6 0 0 1 6 6H18a6 6 0 0 1 6-6z" fill="none" stroke="#041459" stroke-miterlimit="10" stroke-width="2"> </path> <path d="M21.058 7.588l-9.316 1.864a6 6 0 0 1-4.925-1.2L4 6" fill="none" stroke="#041459" stroke-linecap="square" stroke-miterlimit="10" stroke-width="2"> </path> <path d="M31 24a8 8 0 0 0 16 0l-8-10z" fill="none" stroke="#041459" stroke-linecap="square" stroke-miterlimit="10" stroke-width="2"> </path> <path fill="none" stroke="#041459" stroke-miterlimit="10" stroke-width="2" d="M47 24H31"> </path> <path d="M26.942 7.588l9.316 1.864a6 6 0 0 0 4.925-1.2L44 6" fill="none" stroke="#041459" stroke-linecap="square" stroke-miterlimit="10" stroke-width="2"> </path> </g> </g></svg>