<svg viewBox="-4.8 -4.8 57.60 57.60" data-name="Layer 1" xmlns="http://www.w3.org/2000/svg" fill="#305af3" stroke="#305af3"><g id="SVGRepo_bgCarrier" stroke-width="0"><path transform="translate(-4.8, -4.8), scale(1.7999999999999998)" d="M16,30.906091134995222C19.3430469600246,30.990046911179352,19.86922223095317,25.797177279869207,22.251880007289223,23.450700459154852C24.30474745913091,21.429006055708957,28.4404760854683,21.117344749883497,28.837441918729546,18.263587373549864C29.236182980663624,15.397068012442496,25.67104216630929,13.732538917261351,23.924738058404422,11.424650348722936C22.499486725173178,9.54106017426879,21.77807601708761,7.0175888302801415,19.61316142370084,6.072920575537426C17.37684495041673,5.097095854172878,14.940775783017276,6.1140502858053365,12.524055764632505,6.4499217020443425C9.161848633054714,6.917195222510594,4.9669417877447515,5.75591116809041,2.842727836863874,8.403645374812179C0.7165659322342934,11.053807615570449,1.5419141982645637,15.23162374605774,3.0270668036226027,18.28747814144984C4.304376191486508,20.915673717512213,7.91149532125767,21.105701891468737,10.00617100616706,23.14316723679574C12.422485756542711,25.493486955862807,12.630219888211451,30.821463994473998,16,30.906091134995222" fill="#305af3" strokewidth="0"></path></g><g id="SVGRepo_tracerCarrier" stroke-linecap="round" stroke-linejoin="round"></g><g id="SVGRepo_iconCarrier"> <title>pisces</title> <g fill="#041459" class="nc-icon-wrapper"> <path d="M13 21a10 10 0 0 1-8.849-5.349A19.472 19.472 0 0 0 4 18c0 11.25 9 19 9 19s9-7.75 9-19a19.472 19.472 0 0 0-.151-2.349A10 10 0 0 1 13 21z" opacity=".3"> </path> <path d="M35 27a10 10 0 0 1 8.849 5.349A19.472 19.472 0 0 0 44 30c0-11.25-9-19-9-19s-9 7.75-9 19a19.472 19.472 0 0 0 .151 2.349A10 10 0 0 1 35 27z" opacity=".3"> </path> <path d="M13 37s9-7.75 9-19a16.1 16.1 0 0 0-9-15 16.1 16.1 0 0 0-9 15c0 11.25 9 19 9 19z" fill="none" stroke="#041459" stroke-linecap="square" stroke-miterlimit="10" stroke-width="2"> </path> <path d="M13 36v2a8 8 0 0 1-8 8v-2a8 8 0 0 1 8-8z" transform="rotate(180 9 41)"> </path> <path d="M13 36a8 8 0 0 1 8 8v2a8 8 0 0 1-8-8v-2z"> </path> <path d="M43 2v2a8 8 0 0 1-8 8v-2a8 8 0 0 1 8-8z"> </path> <path d="M27 2a8 8 0 0 1 8 8v2a8 8 0 0 1-8-8V2z" transform="rotate(180 31 7)"> </path> <circle cx="11" cy="11" r="2"> </circle> <path d="M4.151 15.651a9.994 9.994 0 0 0 17.7 0" fill="none" stroke="#041459" stroke-miterlimit="10" stroke-width="2"> </path> <path d="M3 18v12h5c-3-5-4-12-4-12z"> </path> <path d="M35 11s-9 7.75-9 19a16.1 16.1 0 0 0 9 15 16.1 16.1 0 0 0 9-15c0-11.25-9-19-9-19z" fill="none" stroke="#041459" stroke-linecap="square" stroke-miterlimit="10" stroke-width="2"> </path> <circle cx="37" cy="37" r="2"> </circle> <path d="M43.849 32.349a9.994 9.994 0 0 0-17.7 0" fill="none" stroke="#041459" stroke-miterlimit="10" stroke-width="2"> </path> <path d="M45 30V18h-5c3 5 4 12 4 12z"> </path> </g> </g></svg>