<svg viewBox="-4.8 -4.8 57.60 57.60" data-name="Layer 1" xmlns="http://www.w3.org/2000/svg" fill="#305af3" stroke="#305af3"><g id="SVGRepo_bgCarrier" stroke-width="0"><path transform="translate(-4.8, -4.8), scale(1.7999999999999998)" d="M16,26.517361354474957C18.746502727802664,26.299075331558928,21.569700796752755,26.863079683008877,23.947775333323108,25.47178980661946C26.665294069233642,23.8819084769856,28.970928747483345,21.469275948469452,29.813625713816073,18.435714914754005C30.71384288691274,15.195091241843722,30.93272376504935,11.14818361521872,28.599739187715947,8.725537188253124C26.32233498481375,6.3606072146380574,22.34545251618423,8.092592219550735,19.145558285821018,7.357649638128372C16.602573334069454,6.773584106454103,14.405658460951138,3.991073908036504,11.961421129070313,4.904095745434137C9.517660121864473,5.816939656235086,9.112536458706865,9.04264078678995,8.146988614754246,11.466061762779162C7.350211189012323,13.465887187103158,7.073269221371973,15.458505332803385,6.901346221668133,17.60433814924492C6.648237991001364,20.763473043423218,4.652426289156294,24.607615678443405,6.91640603122902,26.825405745949908C9.14791197719086,29.011384547158144,12.886020283796228,26.76485364378178,16,26.517361354474957" fill="#041459305af3" strokewidth="0"></path></g><g id="SVGRepo_tracerCarrier" stroke-linecap="round" stroke-linejoin="round"></g><g id="SVGRepo_iconCarrier"> <title>sagittarius</title> <g fill="#041459" class="nc-icon-wrapper"> <path opacity=".3" d="M44 4l-4 13-3-6-6-3 13-4z"> </path> <path d="M44.987 40.8c-1.3.122-1.933-.27-2.912-1.982-2.884-5.047-4.527-14.27-11.575-21.318S14.229 8.809 9.185 5.925C7.473 4.946 7.081 4.31 7.2 3.013" fill="none" stroke="#041459" stroke-linecap="square" stroke-miterlimit="10" stroke-width="2"> </path> <path fill="none" stroke="#041459" stroke-miterlimit="10" stroke-width="2" d="M14 38h27.637"> </path> <path fill="none" stroke="#041459" stroke-miterlimit="10" stroke-width="2" d="M10 6.363V38"> </path> <path fill="none" stroke="#041459" stroke-miterlimit="10" stroke-width="2" d="M3 45l34-34"> </path> <path fill="none" stroke="#041459" stroke-linecap="square" stroke-miterlimit="10" stroke-width="2" d="M4 38h6v6"> </path> <path fill="none" stroke="#041459" stroke-linecap="square" stroke-miterlimit="10" stroke-width="2" d="M44 4l-4 13-3-6-6-3 13-4z"> </path> </g> </g></svg>