<svg viewBox="-4.8 -4.8 57.60 57.60" data-name="Layer 1" xmlns="http://www.w3.org/2000/svg" fill="#305af3" stroke="#305af3"><g id="SVGRepo_bgCarrier" stroke-width="0"><path transform="translate(-4.8, -4.8), scale(1.7999999999999998)" d="M16,28.23215617452349C19.02737314911359,27.930019616838493,22.296473683219315,28.236937122344646,24.63706395247459,26.293251994827543C26.983915811116777,24.344367085731484,27.598921198228215,21.14273496757572,28.15011647008057,18.1423933524255C28.70590954988408,15.117024319155423,29.307100446179383,11.868982141838192,27.777200588982176,9.200430069650924C26.24495212540051,6.52778140355621,23.06995223038398,5.567618746624273,20.241257508137895,4.347240766298761C17.18530029438395,3.02881539393446,14.019882737671232,0.830505901376537,10.870323935512825,1.9063308437046302C7.704920240422307,2.9875680777521865,6.497406488255605,6.652369750043421,4.895743855752221,9.58895472596798C3.3442651707874447,12.433529422459271,1.6649530990614716,15.263904526574603,1.8196527755804315,18.50037781147956C1.9912185826143738,22.089707560339534,2.8213131466315784,26.1414666677548,5.784125964210309,28.174804583642267C8.679158839866334,30.161626052378438,12.506135661182961,28.58084927985067,16,28.23215617452349" fill="#041459305af3" strokewidth="0"></path></g><g id="SVGRepo_tracerCarrier" stroke-linecap="round" stroke-linejoin="round"></g><g id="SVGRepo_iconCarrier"> <title>scorpio</title> <g fill="#041459" class="nc-icon-wrapper"> <path d="M37.319 37.056a3 3 0 0 1 1.332-4.028c.687-.345 2.231-2.241 1.332-4.028l2.7 5.36a3 3 0 1 1-5.36 2.7z" opacity=".3"> </path> <path d="M7.923 10.589C5.839 7.081 5.431 4.367 6.577 1.08a4.312 4.312 0 0 0-2.27.165C1.339 2.313.149 6.555 1.648 10.719s5.121 6.674 8.089 5.605 4.157-5.31 2.658-9.474a10.991 10.991 0 0 0-1.118-2.257c-.561 2.861-1.566 4.687-3.354 5.996z" opacity=".3"> </path> <path d="M40.077 10.589c2.084-3.508 2.492-6.222 1.346-9.509a4.312 4.312 0 0 1 2.27.165c2.968 1.068 4.158 5.31 2.659 9.474s-5.121 6.674-8.089 5.605-4.157-5.31-2.663-9.474a10.991 10.991 0 0 1 1.118-2.257c.566 2.861 1.571 4.687 3.359 5.996z" opacity=".3"> </path> <path d="M7.923 10.589C5.839 7.081 5.431 4.367 6.577 1.08a4.312 4.312 0 0 0-2.27.165C1.339 2.313.149 6.555 1.648 10.719s5.121 6.674 8.089 5.605 4.157-5.31 2.658-9.474a10.991 10.991 0 0 0-1.118-2.257c-.561 2.861-1.566 4.687-3.354 5.996z" fill="none" stroke="#041459" stroke-linecap="square" stroke-miterlimit="10" stroke-width="2"> </path> <path d="M37.319 37.056a3 3 0 0 1 1.332-4.028c.687-.345 2.231-2.241 1.332-4.028l2.7 5.36a3 3 0 1 1-5.36 2.7z" fill="none" stroke="#041459" stroke-linecap="square" stroke-miterlimit="10" stroke-width="2"> </path> <path d="M22.626 38.515a2.067 2.067 0 0 0 2.661 0c2.019-1.787 5.626-5.791 5.626-11.581A36.909 36.909 0 0 0 28.062 13.4a2.3 2.3 0 0 0-2.137-1.4h-3.937a2.3 2.3 0 0 0-2.137 1.4A36.909 36.909 0 0 0 17 26.934c0 5.79 3.607 9.794 5.626 11.581z" fill="none" stroke="#041459" stroke-linecap="square" stroke-miterlimit="10" stroke-width="2"> </path> <path d="M40 39a8 8 0 0 1-16 0" fill="none" stroke="#041459" stroke-linecap="square" stroke-miterlimit="10" stroke-width="2"> </path> <path fill="none" stroke="#041459" stroke-linecap="square" stroke-miterlimit="10" stroke-width="2" d="M22 12v-2"> </path> <path fill="none" stroke="#041459" stroke-linecap="square" stroke-miterlimit="10" stroke-width="2" d="M26 12v-2"> </path> <path d="M20.284 12.734c-4.659 4.974-9.306 10.331-17.118.819" fill="none" stroke="#041459" stroke-miterlimit="10" stroke-width="2"> </path> <path d="M40.077 10.589c2.084-3.508 2.492-6.222 1.346-9.509a4.312 4.312 0 0 1 2.27.165c2.968 1.068 4.158 5.31 2.659 9.474s-5.121 6.674-8.089 5.605-4.157-5.31-2.663-9.474a10.991 10.991 0 0 1 1.118-2.257c.566 2.861 1.571 4.687 3.359 5.996z" fill="none" stroke="#041459" stroke-linecap="square" stroke-miterlimit="10" stroke-width="2"> </path> <path d="M27.716 12.734c4.659 4.974 9.306 10.331 17.118.819" fill="none" stroke="#041459" stroke-miterlimit="10" stroke-width="2"> </path> <path d="M18.6 33.4l-1.472 1.472A7.265 7.265 0 0 1 11.991 37H10" fill="none" stroke="#041459" stroke-miterlimit="10" stroke-width="2"> </path> <path d="M17.076 28.374L15.6 29.691a7.267 7.267 0 0 1-6.023 1.738L7 31" fill="none" stroke="#041459" stroke-miterlimit="10" stroke-width="2"> </path> <path d="M30.924 28.374l1.48 1.317A7.264 7.264 0 0 0 36 31.422" fill="none" stroke="#041459" stroke-miterlimit="10" stroke-width="2"> </path> <path d="M17.4 22l-2.945 1.84a7.262 7.262 0 0 1-7.1.338L5 23" fill="none" stroke="#041459" stroke-miterlimit="10" stroke-width="2"> </path> <path d="M29.4 33.4l1.472 1.472A7.269 7.269 0 0 0 34 36.717" fill="none" stroke="#041459" stroke-miterlimit="10" stroke-width="2"> </path> <path d="M30.6 22l2.945 1.84a7.262 7.262 0 0 0 7.1.338L43 23" fill="none" stroke="#041459" stroke-miterlimit="10" stroke-width="2"> </path> </g> </g></svg>