<svg viewBox="-4.8 -4.8 57.60 57.60" data-name="Layer 1" xmlns="http://www.w3.org/2000/svg" fill="#305af3" stroke="#305af3"><g id="SVGRepo_bgCarrier" stroke-width="0"><path transform="translate(-4.8, -4.8), scale(1.7999999999999998)" d="M16,27.431431606411934C17.780162442752093,27.20305262471732,19.519563774542817,28.107386164570702,21.303676463020675,27.912252372834683C23.400152471961327,27.68295446158155,25.972515283724338,27.814992552147224,27.320747932468578,26.19324722287112C28.68597593742112,24.551058730780444,27.608134278288933,21.994394750982657,27.97278783492335,19.890194586384332C28.287136710600027,18.076273005459516,29.83755280758701,16.36857236555302,29.33001420363018,14.598959051046846C28.80493081516384,12.768173080852748,26.639806388961077,11.990194546263426,25.314651507739043,10.622183444599314C24.26814539796532,9.541832765281322,23.42451627235061,8.32899041846743,22.294687427763186,7.336106029409555C21.09159005188244,6.278833851635854,19.928506821729968,5.134771913666541,18.429237219839404,4.571337432477838C16.849226916328877,3.97756011283587,15.123912772085152,3.7806316023042594,13.452085182175168,4.013003231674965C11.736183155589462,4.251500880693715,9.97678587759659,4.7764188590360295,8.681006167557996,5.926269212986794C7.403823536956561,7.059616871141657,6.865214232398128,8.78249176076839,6.272640490675254,10.383906368787084C5.7359542606095175,11.834286478865755,5.9687600361887,13.457831011329521,5.366948400539016,14.882421243098166C4.49992544524085,16.93481165842064,1.9138054996103004,18.32980569125065,1.9750742877438796,20.556974602115332C2.030818450071497,22.583318995080766,4.282964670297636,23.822448257485657,5.653962586637988,25.315613929447906C7.015453899417359,26.798425877363584,8.081504306965268,28.952186744024267,10.053739826880431,29.355519016028573C12.117313663967597,29.77753044202541,13.91083857104313,27.69945240512243,16,27.431431606411934" fill="#041459305af3" strokewidth="0"></path></g><g id="SVGRepo_tracerCarrier" stroke-linecap="round" stroke-linejoin="round"></g><g id="SVGRepo_iconCarrier"> <title>taurus</title> <g fill="#041459" class="nc-icon-wrapper"> <path d="M38 16h2a7 7 0 0 0 7-7V2h-.08A6.994 6.994 0 0 1 40 8h-6z" opacity=".3"> </path> <path d="M14 8H8a6.994 6.994 0 0 1-6.92-6H1v7a7 7 0 0 0 7 7h2z" opacity=".3"> </path> <path fill="none" stroke="#041459" stroke-miterlimit="10" stroke-width="2" d="M18 31l2-8"> </path> <path d="M20 24h-2.037a3.178 3.178 0 0 1-2.841-1.755L14 20h4.72A2.28 2.28 0 0 1 21 22.28V23a1 1 0 0 1-1 1z"> </path> <path fill="none" stroke="#041459" stroke-miterlimit="10" stroke-width="2" d="M30 31l-2-8"> </path> <path d="M28 24h2.037a3.178 3.178 0 0 0 2.841-1.755L34 20h-4.72A2.28 2.28 0 0 0 27 22.28V23a1 1 0 0 0 1 1z"> </path> <path d="M15 35l-3.118-4.988a7 7 0 0 1-.563-6.31L12 22l-2-6 4-8h20l4 8-2 6 .681 1.7a7 7 0 0 1-.563 6.31L33 35" fill="none" stroke="#041459" stroke-miterlimit="10" stroke-width="2"> </path> <path d="M31 41v1a3 3 0 0 1-3 3h-8a3 3 0 0 1-3-3v-1" fill="none" stroke="#041459" stroke-miterlimit="10" stroke-width="2"> </path> <path d="M18.459 31h11.082a3 3 0 0 1 2.941 2.412l.8 4A3 3 0 0 1 30.341 41H17.659a3 3 0 0 1-2.941-3.588l.8-4A3 3 0 0 1 18.459 31z" fill="none" stroke="#041459" stroke-linecap="square" stroke-miterlimit="10" stroke-width="2"> </path> <circle cx="19.5" cy="36.5" r="1.5"> </circle> <circle cx="28.5" cy="36.5" r="1.5"> </circle> <path d="M9 23H7a6 6 0 0 1-6-6h9" fill="none" stroke="#041459" stroke-miterlimit="10" stroke-width="2"> </path> <path d="M39 23h2a6 6 0 0 0 6-6h-9" fill="none" stroke="#041459" stroke-miterlimit="10" stroke-width="2"> </path> <path d="M38 16h2a7 7 0 0 0 7-7V2h-.08A6.994 6.994 0 0 1 40 8h-6" fill="none" stroke="#041459" stroke-linecap="square" stroke-miterlimit="10" stroke-width="2"> </path> <path d="M14 8H8a6.994 6.994 0 0 1-6.92-6H1v7a7 7 0 0 0 7 7h2" fill="none" stroke="#041459" stroke-linecap="square" stroke-miterlimit="10" stroke-width="2"> </path> </g> </g></svg>