<svg viewBox="-4.8 -4.8 57.60 57.60" data-name="Layer 1" xmlns="http://www.w3.org/2000/svg" fill="#305af3" stroke="#305af3"><g id="SVGRepo_bgCarrier" stroke-width="0"><path transform="translate(-4.8, -4.8), scale(1.7999999999999998)" d="M16,25.96555253304541C18.075774272698848,25.746627344256027,19.783544385538377,24.602780936924507,21.75760903708916,23.924668983790966C24.87799448140083,22.85278379172829,30.239610421139943,24.074951700971017,30.908890196660312,20.844192073868626C31.614879270605464,17.436228647058087,25.540997749879384,16.509043362843144,23.933259804127403,13.4223276343062C22.76729728974885,11.183781954939642,24.81863319305995,8.019021237504148,23.21403108692349,6.070738038241503C21.570474698709155,4.075157148778014,18.579280380822254,3.6140066407502958,16,3.789885589852929C13.517321735022739,3.9591773223263673,11.371793621508765,5.406817446643986,9.467027381967302,7.008134601606562C7.678325265562843,8.511877856109983,6.527637540989426,10.485726318733429,5.524693633292868,12.596366637382888C4.366275983247854,15.034192899905943,2.4514728024849823,17.565106340142783,3.221228748808109,20.152074473167062C3.992726692681497,22.744897048981763,6.824465978566841,24.119728092240628,9.286801802199793,25.239924627991865C11.38691929415668,26.19533628085476,13.705497023575667,26.20754632972081,16,25.96555253304541" fill="#305af3" strokewidth="0"></path></g><g id="SVGRepo_tracerCarrier" stroke-linecap="round" stroke-linejoin="round"></g><g id="SVGRepo_iconCarrier"> <title>virgo</title> <g fill="#041459" class="nc-icon-wrapper"> <path d="M17 46a14.211 14.211 0 0 1-1.952-7.453H20.6a3.086 3.086 0 0 0 3.055-2.65l.65-4.552 4.108-1.645a1.028 1.028 0 0 0 .538-1.415l-3.615-7.23c0-6.454-1.077-10.884-4.506-13.289 0 0-.638 5.058-6.811 9.173A13.292 13.292 0 0 0 7.846 27.23C.387 21.057-.385 12.826 2.7 7.682S11.19.823 17.106 1.337c7.559.658 12.419 8 13.632 18.005C33 38 45 34 45 34s-2 16-28 12z" opacity=".3"> </path> <path d="M18.681 19.924l3.848 1.924a4.165 4.165 0 0 0 0-3.848z"> </path> <path d="M17 46a14.211 14.211 0 0 1-1.952-7.453H20.6a3.086 3.086 0 0 0 3.055-2.65l.65-4.552 4.108-1.645a1.028 1.028 0 0 0 .538-1.415l-3.615-7.23c0-6.454-1.077-10.884-4.506-13.289 0 0-.638 5.058-6.811 9.173A13.292 13.292 0 0 0 7.846 27.23C.387 21.057-.385 12.826 2.7 7.682S11.19.823 17.106 1.337c7.559.658 12.419 8 13.632 18.005C33 38 45 34 45 34s-2 16-28 12z" fill="none" stroke="#041459" stroke-linecap="square" stroke-miterlimit="10" stroke-width="2"> </path> <circle cx="41" cy="17" r="1"> </circle> <path d="M38.719 8.328A9.51 9.51 0 0 1 37 6a9.5 9.5 0 0 1-4 4 9.5 9.5 0 0 1 4 4 9.5 9.5 0 0 1 4-4 9.509 9.509 0 0 1-2.281-1.672z"> </path> <path d="M32.485 26.672c3 2 6.1 1.828 10.1-.172a6.213 6.213 0 0 1-2.166 5.208" fill="none" stroke="#041459" stroke-miterlimit="10" stroke-width="2"> </path> </g> </g></svg>